<svg xmlns="http://www.w3.org/2000/svg" xmlns:xlink="http://www.w3.org/1999/xlink"
  viewBox="-5.0 -10.0 110.0 135.0" version="1.1" x="0px" y="0px">
  <title>iPhone 8 Copy 9</title>
  <desc>Created with Sketch.</desc>
  <g stroke="none" stroke-width="1" fill="none" fill-rule="evenodd">
    <path
      d="M22.5,24 L78.5,24 C81.5375661,24 84,26.4624339 84,29.5 C84,32.5375661 81.5375661,35 78.5,35 L22.5,35 C19.4624339,35 17,32.5375661 17,29.5 C17,26.4624339 19.4624339,24 22.5,24 Z M22.5,45 L78.5,45 C81.5375661,45 84,47.4624339 84,50.5 C84,53.5375661 81.5375661,56 78.5,56 L22.5,56 C19.4624339,56 17,53.5375661 17,50.5 C17,47.4624339 19.4624339,45 22.5,45 Z M22.5,66 L78.5,66 C81.5375661,66 84,68.4624339 84,71.5 C84,74.5375661 81.5375661,77 78.5,77 L22.5,77 C19.4624339,77 17,74.5375661 17,71.5 C17,68.4624339 19.4624339,66 22.5,66 Z"
      fill="#000000" />
  </g>
</svg>