<svg xmlns="http://www.w3.org/2000/svg" version="1.1" viewBox="-5.0 -10.0 110.0 135.0">
 <path d="m34.445 22.426c-0.30469-2.625-2.5234-4.5469-5.2539-4.5469-2.7266 0-4.8477 2.0195-5.2539 4.5469h-11.008v1.4141h11.012c0.30469 2.625 2.5234 4.5469 5.2539 4.5469 2.7266 0 4.8477-2.0195 5.2539-4.5469h52.02v-1.4141z"/>
 <path d="m71.719 43.133c-2.7266 0-4.8477 2.0195-5.2539 4.5469h-53.535v1.4141h53.535c0.30469 2.625 2.5234 4.5469 5.2539 4.5469 2.7266 0 4.8477-2.0195 5.2539-4.5469h9.4961v-1.4141h-9.4961c-0.40625-2.6289-2.5273-4.5469-5.2539-4.5469z"/>
 <path d="m42.223 68.281c-2.7266 0-4.8477 2.0195-5.2539 4.5469h-24.039v1.4141h24.039c0.30469 2.625 2.5234 4.5469 5.2539 4.5469 2.7266 0 4.8477-2.0195 5.2539-4.5469h38.988v-1.4141h-38.988c-0.40625-2.5234-2.5273-4.5469-5.2539-4.5469z"/>
</svg>