<svg xmlns="http://www.w3.org/2000/svg" version="1.1" viewBox="-5.0 -10.0 110.0 135.0">
  <path
      d="m63.891 39.586c-0.9375 19.18-27.879 17.574-27.656 0-0.19141-17.699 26.754-19.055 27.656 0zm11.531 21.762c-5.6328 7.0508-19.992 25.051-25.422 31.906-5.3438-6.7461-19.859-24.938-25.422-31.906-18.375-22.691-0.45312-57.715 28.57-54.473 26.289 2.1289 38.723 33.855 22.273 54.473zm-5.2812-21.762c0-5.3398-2.1211-10.461-5.8984-14.238-3.7773-3.7773-8.8984-5.8984-14.242-5.8984-5.3398 0-10.461 2.1211-14.238 5.8984-3.7773 3.7773-5.9023 8.8984-5.9023 14.242 0 5.3398 2.125 10.461 5.8984 14.238 3.7773 3.7773 8.9023 5.9023 14.242 5.9023 5.3398-0.011719 10.453-2.1367 14.23-5.9141 3.7734-3.7734 5.8984-8.8906 5.9102-14.23z" />
</svg>