<svg xmlns="http://www.w3.org/2000/svg" version="1.1" viewBox="-5.0 -10.0 110.0 135.0">
 <path d="m50.562 62.66c0 0.75-1.125 0.75-1.125 0s1.125-0.75 1.125 0"/>
 <path d="m9.1484 42.164h4.5898c0.41406 0 0.8125 0.16406 1.1055 0.45703 0.29297 0.29297 0.45703 0.69141 0.45703 1.1055v47.188h69.398v-47.188c0-0.86328 0.69922-1.5625 1.5625-1.5625h4.5938l-40.855-32.645zm27.148 31.453c0.32422 0.26172 0.52734 0.64453 0.56641 1.0625 0.042969 0.41406-0.085937 0.82812-0.35547 1.1523-0.26953 0.32031-0.65234 0.51953-1.0703 0.55469-0.41797 0.03125-0.82812-0.10156-1.1484-0.375-3.9414-3.3125-6.2148-8.1992-6.2148-13.352 0-5.1484 2.2734-10.035 6.2148-13.352 0.66016-0.55469 1.6484-0.47266 2.2031 0.1875 0.55859 0.65625 0.47656 1.6445-0.18359 2.1992-3.2344 2.7227-5.1055 6.7344-5.1055 10.961s1.8711 8.2383 5.1055 10.961zm5.9219-7.043-0.003906-0.003907c0.66016 0.55859 0.74609 1.543 0.1875 2.2031-0.55469 0.66016-1.5391 0.74609-2.1992 0.1875-1.8594-1.5586-2.9336-3.8633-2.9336-6.2891 0.007813-2.4258 1.0742-4.7266 2.918-6.3047 0.3125-0.28125 0.72656-0.42578 1.1445-0.40234 0.42188 0.027344 0.8125 0.22266 1.0859 0.53906 0.27344 0.32031 0.41016 0.73438 0.375 1.1562-0.035157 0.41797-0.23828 0.80469-0.56641 1.0742-1.1523 0.98047-1.8242 2.4219-1.832 3.9375 0 1.5039 0.66797 2.9336 1.8203 3.8984zm21.488-14.871h-0.003906c-0.32422-0.26562-0.52734-0.64844-0.56641-1.0625-0.042969-0.41797 0.085937-0.83203 0.35547-1.1523 0.26953-0.32031 0.65234-0.52344 1.0703-0.55469 0.41797-0.035156 0.82812 0.097656 1.1484 0.37109 3.9414 3.3164 6.2148 8.2031 6.2148 13.352 0 5.1523-2.2734 10.039-6.2148 13.352-0.32031 0.26953-0.72656 0.39844-1.1406 0.36328-0.41406-0.035156-0.79687-0.23047-1.0625-0.54688-0.55859-0.66016-0.47656-1.6484 0.18359-2.2031 3.2344-2.7227 5.1055-6.7344 5.1055-10.961 0-4.2266-1.8711-8.2383-5.1055-10.957zm-5.9219 7.0469c-0.66016-0.55469-0.74609-1.543-0.1875-2.2031 0.55469-0.66016 1.5391-0.74219 2.1992-0.1875 1.8594 1.5586 2.9336 3.8633 2.9336 6.2891-0.007813 2.4258-1.0742 4.7305-2.918 6.3047-0.3125 0.28516-0.72656 0.42969-1.1445 0.40234-0.42188-0.027344-0.8125-0.21875-1.0859-0.53906-0.27344-0.32031-0.41016-0.73438-0.375-1.1523 0.035157-0.42187 0.23828-0.80859 0.56641-1.0742 1.1562-0.98438 1.8242-2.4219 1.832-3.9414 0-1.5039-0.66797-2.9336-1.8203-3.8984zm-5.2227 3.9062c0 1.0352-0.62109 1.9727-1.5781 2.3711-0.96094 0.39453-2.0625 0.17578-2.7969-0.55469-0.73047-0.73438-0.95312-1.8359-0.55469-2.793 0.39453-0.95703 1.332-1.582 2.3672-1.582 1.4141 0 2.5586 1.1445 2.5625 2.5586z"/>
</svg>
